HIERARCHY
ROOT SpineBase
{
  OFFSET 0.000000 0.000000 0.000000
  CHANNELS 6 Xposition Yposition Zposition Zrotation Xrotation Yrotation
  JOINT SpineMid
  {
    OFFSET 0.000000 31.909438 0.000000
    CHANNELS 3 Zrotation Xrotation Yrotation
    JOINT SpineShoulder
    {
      OFFSET 0.052495 23.658494 -0.793123
      CHANNELS 3 Zrotation Xrotation Yrotation
      JOINT Neck
      {
        OFFSET 0.063214 7.815682 -0.597341
        CHANNELS 3 Zrotation Xrotation Yrotation
        JOINT Head
        {
          OFFSET -5.300973 14.133301 0.234664
          CHANNELS 3 Zrotation Xrotation Yrotation
          End Site
          {
            OFFSET 0 0 0
          }
        }
      }
      JOINT ShoulderLeft
      {
        OFFSET -16.538135 -6.503942 8.076056
        CHANNELS 3 Zrotation Xrotation Yrotation
        JOINT ElbowLeft
        {
          OFFSET -1.117816 -27.012754 3.278217
          CHANNELS 3 Zrotation Xrotation Yrotation
          JOINT WristLeft
          {
            OFFSET 0.365751 -23.756033 -3.871446
            CHANNELS 3 Zrotation Xrotation Yrotation
            JOINT HandLeft
            {
              OFFSET 0.249798 -6.764178 -2.252842
              CHANNELS 3 Zrotation Xrotation Yrotation
              JOINT HandTipLeft
              {
                OFFSET 0.842497 -6.271660 -1.255966
                CHANNELS 3 Zrotation Xrotation Yrotation
                End Site
                {
                  OFFSET 0 0 0
                }
              }
              JOINT ThumbLeft
              {
                OFFSET -2.504585 -1.562799 -0.936533
                CHANNELS 3 Zrotation Xrotation Yrotation
                End Site
                {
                  OFFSET 0 0 0
                }
              }
            }
          }
        }
      }
      JOINT ShoulderRight
      {
        OFFSET 14.366082 -3.915119 -8.992035
        CHANNELS 3 Zrotation Xrotation Yrotation
        JOINT ElbowRight
        {
          OFFSET 7.817745 -24.508092 -2.299108
          CHANNELS 3 Zrotation Xrotation Yrotation
          JOINT WristRight
          {
            OFFSET -1.877395 -22.059917 -5.610173
            CHANNELS 3 Zrotation Xrotation Yrotation
            JOINT HandRight
            {
              OFFSET -2.634532 -8.849556 -1.136862
              CHANNELS 3 Zrotation Xrotation Yrotation
              JOINT HandTipRight
              {
                OFFSET -0.945259 -7.124228 -2.394492
                CHANNELS 3 Zrotation Xrotation Yrotation
                End Site
                {
                  OFFSET 0 0 0
                }
              }
              JOINT ThumbRight
              {
                OFFSET 2.706697 -2.249514 -2.561756
                CHANNELS 3 Zrotation Xrotation Yrotation
                End Site
                {
                  OFFSET 0 0 0
                }
              }
            }
          }
        }
      }
    }
  }
  JOINT HipLeft
  {
    OFFSET -6.201215 0.066072 -0.716844
    CHANNELS 3 Zrotation Xrotation Yrotation
    JOINT KneeLeft
    {
      OFFSET 4.520949 -34.941587 3.949518
      CHANNELS 3 Zrotation Xrotation Yrotation
      JOINT AnkleLeft
      {
        OFFSET 7.376631 -37.013053 7.039359
        CHANNELS 3 Zrotation Xrotation Yrotation
        JOINT FootLeft
        {
          OFFSET 0.743678 -8.264713 -6.217658
          CHANNELS 3 Zrotation Xrotation Yrotation
          End Site
          {
            OFFSET 0 0 0
          }
        }
      }
    }
  }
  JOINT HipRight
  {
    OFFSET 7.066784 1.566509 -6.701647
    CHANNELS 3 Zrotation Xrotation Yrotation
    JOINT KneeRight
    {
      OFFSET 8.809047 -32.910135 0.522987
      CHANNELS 3 Zrotation Xrotation Yrotation
      JOINT AnkleRight
      {
        OFFSET 4.029608 -37.762122 8.130853
        CHANNELS 3 Zrotation Xrotation Yrotation
        JOINT FootRight
        {
          OFFSET -5.136841 -7.737854 -0.187506
          CHANNELS 3 Zrotation Xrotation Yrotation
          End Site
          {
            OFFSET 0 0 0
          }
        }
      }
    }
  }
}
MOTION
Frames: 11
Frame Time: 0.033333
-42.707880 84.558728 344.225786 -4.170374 5.457771 26.722459 0.110613 -0.892749 -26.659659 0.493965 -0.128743 -0.129888 -26.541953 18.284206 14.709926 0.000000 0.000000 0.000000 -137.133026 54.409383 85.833759 -50.491505 70.925836 -142.810410 21.076573 -15.755152 20.703979 -41.418080 14.981536 -1.906222 0.000000 0.000000 0.000000 0.000000 0.000000 0.000000 -119.835537 35.577029 124.849120 -52.979197 55.055458 -111.992732 -23.013703 -23.547960 -75.492990 -5.502397 0.185609 51.653435 0.000000 0.000000 0.000000 0.000000 0.000000 0.000000 -1.475495 -0.038146 -26.612309 10.063571 -11.456411 0.394598 -17.735985 27.572393 14.270598 0.000000 0.000000 0.000000 -3.031352 -2.085652 -26.269340 7.431997 -8.337508 -0.562660 2.770291 17.814154 -8.630382 0.000000 0.000000 0.000000
-42.799029 86.209106 343.944121 -3.263622 5.137512 26.245560 0.425150 -0.858646 -26.172364 0.783707 -0.253913 -0.044838 -30.944068 19.617772 16.142596 0.000000 0.000000 0.000000 -133.696914 51.506796 73.763415 -63.495425 63.592451 -131.269556 36.327582 -10.091625 48.050811 -45.835823 38.158828 -24.739211 0.000000 0.000000 0.000000 0.000000 0.000000 0.000000 -123.544016 34.820497 128.965911 -52.897648 61.297394 -124.720016 -10.998639 -17.400080 -47.284477 -5.429014 -10.210822 14.317793 0.000000 0.000000 0.000000 0.000000 0.000000 0.000000 -2.347627 -0.725072 -26.367163 8.374930 -9.075294 0.135437 -14.074013 23.388559 11.584099 0.000000 0.000000 0.000000 -3.688624 -1.925138 -25.976139 7.035805 -6.505690 -0.411868 6.345078 16.705651 -9.748755 0.000000 0.000000 0.000000
-42.693880 87.311115 344.123809 -2.005682 4.544798 25.387375 0.552803 -0.684635 -25.329551 0.766762 -0.048180 0.010303 -32.196729 20.395233 16.530342 0.000000 0.000000 0.000000 -128.895308 47.864527 59.728888 -76.078897 53.129330 -114.522982 47.732289 4.625490 98.756853 10.670334 66.700148 -113.513169 0.000000 0.000000 0.000000 0.000000 0.000000 0.000000 -127.559117 35.146195 135.686760 -48.028336 71.446792 -147.810211 -4.415336 -16.406810 -37.862829 -7.400748 -11.272410 -8.826899 0.000000 0.000000 0.000000 0.000000 0.000000 0.000000 -3.551287 -1.154192 -25.775746 6.928703 -6.522068 0.024845 -15.058311 23.860723 13.382558 0.000000 0.000000 0.000000 -4.476177 -1.256747 -25.235090 7.121407 -4.776723 -0.149552 7.611982 19.390856 -13.403937 0.000000 0.000000 0.000000
-42.425147 87.817560 344.285550 -0.523307 3.949651 24.416741 0.567419 -0.502151 -24.373753 0.836277 -0.026119 0.078566 -31.396148 20.337345 15.645743 0.000000 0.000000 0.000000 -124.306647 44.094913 47.343848 -83.146046 43.326652 -105.030235 44.471318 15.362583 138.154388 44.512983 46.513755 -162.246593 0.000000 0.000000 0.000000 0.000000 0.000000 0.000000 -132.914322 34.281007 144.434356 1.014770 80.782889 135.197646 0.374617 -21.409470 -41.868094 -7.082858 -0.560028 4.427549 0.000000 0.000000 0.000000 0.000000 0.000000 0.000000 -5.217250 -1.539095 -25.103878 6.111667 -4.264467 0.044489 -14.826715 23.502832 13.724171 0.000000 0.000000 0.000000 -5.494712 -0.595666 -24.383636 7.499167 -3.307020 0.166727 6.426263 23.311509 -17.217215 0.000000 0.000000 0.000000
-42.095241 87.665374 344.598816 1.081993 3.290182 24.029647 0.683587 -0.429726 -23.978054 0.873458 -0.112183 0.157081 -30.128877 19.773864 14.194137 0.000000 0.000000 0.000000 -119.710189 39.856866 36.037157 -89.703406 34.454383 -95.001427 40.970075 14.547701 155.246479 36.788477 35.962913 -149.684229 0.000000 0.000000 0.000000 0.000000 0.000000 0.000000 -139.923413 36.724975 159.378484 66.356077 69.832573 37.795237 14.685903 -21.163438 -57.043016 -15.135223 -5.374365 27.083799 0.000000 0.000000 0.000000 0.000000 0.000000 0.000000 -6.919893 -1.463186 -24.914709 5.707890 -2.676971 0.101388 -12.268002 19.922863 11.458180 0.000000 0.000000 0.000000 -6.545441 0.279457 -24.042332 8.209567 -2.320180 0.507040 2.647675 27.570616 -20.135739 0.000000 0.000000 0.000000
-41.749225 87.093335 344.913892 2.063376 2.740064 23.708355 0.383377 -0.185087 -23.669209 0.441221 -0.203986 0.142208 -24.736938 18.522543 11.980997 0.000000 0.000000 0.000000 -109.759296 36.478147 26.026868 -96.604668 32.392602 -100.040661 42.672805 17.881164 153.833527 8.711545 33.788713 -87.298223 0.000000 0.000000 0.000000 0.000000 0.000000 0.000000 -142.813828 42.994238 167.747610 80.614513 62.874195 6.672354 27.447622 -18.481151 -77.777802 -18.318212 -16.060214 37.256626 0.000000 0.000000 0.000000 0.000000 0.000000 0.000000 -8.071973 -1.444981 -24.717160 5.674890 -1.735616 0.147929 -14.525835 23.256937 13.895091 0.000000 0.000000 0.000000 -6.961524 1.049472 -23.658131 8.253589 -2.477298 0.564115 4.829202 41.854139 -32.306380 0.000000 0.000000 0.000000
-41.318269 85.423553 345.241266 2.462450 2.288745 22.192468 -0.165039 0.201018 -22.179056 0.089778 -0.113214 0.093828 -17.394043 16.580563 9.519704 0.000000 0.000000 0.000000 -97.632196 31.688537 16.009155 -99.728107 35.607990 -126.755524 45.860391 31.547209 155.495472 -6.785569 16.272852 -13.700668 0.000000 0.000000 0.000000 0.000000 0.000000 0.000000 -143.279971 51.953872 171.397224 96.558161 61.890778 -6.837109 26.181764 -19.217180 -72.748268 -19.150817 -11.341922 29.494850 0.000000 0.000000 0.000000 0.000000 0.000000 0.000000 -8.677390 -1.885294 -23.329630 5.978735 -1.205253 0.183173 -17.383389 27.309390 16.723646 0.000000 0.000000 0.000000 -6.891639 1.719005 -21.986792 8.623948 -3.352318 0.596886 7.604748 50.948510 -41.599865 0.000000 0.000000 0.000000
-40.960060 83.696077 345.508166 2.152678 2.106606 21.331531 -0.703343 0.419671 -21.345821 -0.106618 0.111429 0.032244 -10.501515 14.259245 7.498670 0.000000 0.000000 0.000000 -81.670116 24.508141 5.999583 -102.587077 41.499804 -159.257547 46.519686 25.495046 75.923557 4.406921 4.574644 52.135592 0.000000 0.000000 0.000000 0.000000 0.000000 0.000000 -141.467390 63.750528 171.644223 125.343798 65.682604 -3.106735 -3.710353 -33.464056 -94.660156 -18.942278 3.253718 48.143308 0.000000 0.000000 0.000000 0.000000 0.000000 0.000000 -8.594215 -2.178975 -22.540658 6.722562 -1.463827 0.205618 -14.354915 23.666440 13.248146 0.000000 0.000000 0.000000 -6.242653 1.773821 -21.049904 8.797069 -4.326159 0.617154 7.404754 52.931699 -42.896028 0.000000 0.000000 0.000000
-40.628657 82.376825 345.590262 1.960877 2.090683 20.992736 -0.968021 0.572527 -21.023638 -0.048548 0.271065 0.014407 -7.812004 12.971838 6.689507 0.000000 0.000000 0.000000 -63.479770 16.128090 -0.993875 -110.188486 50.495037 178.945759 16.796329 19.152570 17.158228 4.392022 -5.791020 44.861679 0.000000 0.000000 0.000000 0.000000 0.000000 0.000000 -117.689127 79.632185 146.090042 -168.945444 67.889334 -18.274360 -31.984321 -18.628220 -69.012584 9.151713 16.740968 27.956729 0.000000 0.000000 0.000000 0.000000 0.000000 0.000000 -8.636073 -2.047583 -22.219475 7.703732 -2.266743 0.221043 -14.639214 23.431010 12.961548 0.000000 0.000000 0.000000 -5.791270 1.447115 -20.746754 8.591726 -4.707212 0.627927 9.725723 53.743147 -45.049266 0.000000 0.000000 0.000000
-40.492409 81.620742 345.803188 1.655129 1.931729 21.541586 -1.038349 0.885988 -21.582725 0.080937 0.446823 0.004161 -4.930177 11.294413 5.776388 0.000000 0.000000 0.000000 -44.756235 6.527705 -4.539934 -113.114440 61.993426 154.879473 0.406478 19.343813 5.837234 0.364376 -5.878205 18.609532 0.000000 0.000000 0.000000 0.000000 0.000000 0.000000 -3.973083 71.627917 28.249935 -120.803719 50.803753 -21.658870 -1.509409 29.030041 8.783016 -33.086423 -34.567268 -35.389233 0.000000 0.000000 0.000000 0.000000 0.000000 0.000000 -7.975593 -1.800470 -22.668739 7.680407 -2.764598 0.189221 -11.610157 18.967220 9.673736 0.000000 0.000000 0.000000 -5.036342 0.892164 -21.408742 7.893698 -4.216290 0.659338 9.589572 52.799005 -44.059835 0.000000 0.000000 0.000000
-40.592608 81.409108 345.919726 1.185872 1.755950 22.334261 -0.998974 0.989752 -22.378228 0.211124 0.473616 -0.002268 -3.303254 10.620876 5.373562 0.000000 0.000000 0.000000 -28.043066 -0.457799 -4.308894 -83.032949 74.676951 104.454978 -7.850015 18.065083 4.372024 -4.501522 -2.396421 4.887174 0.000000 0.000000 0.000000 0.000000 0.000000 0.000000 2.994837 47.640316 14.747352 -86.439167 29.355313 -14.276621 18.495224 35.526564 -0.899986 -57.512818 -24.750456 -29.058007 0.000000 0.000000 0.000000 0.000000 0.000000 0.000000 -6.700489 -1.532897 -23.276491 7.063301 -3.359300 0.100710 -10.130029 16.778714 8.144267 0.000000 0.000000 0.000000 -4.155342 -0.011311 -22.393543 6.901830 -3.013372 0.724279 7.800528 49.300363 -39.867318 0.000000 0.000000 0.000000
